# xmcd
#
# Track frame offsets: 
#        150
#        6871
#        17133
#        25878
#        32130
#        39838
#        51812
#        63422
#        77374
#        87020
#        98086
#        107139
#
# Disc length: 1646 seconds
#
# Revision: 1
# Processed by: cddbd v1.5.2PL0 Copyright (c) Steve Scherf et al.
# Submitted via: ExactAudioCopy v0.99pb4
#
DISCID=82066c0c
DTITLE=Title Fight - Shed
DYEAR=2011
DGENRE=Alternative
TTITLE0=Coxton Yard
TTITLE1=Shed
TTITLE2=Flood Of '72
TTITLE3=Society
TTITLE4=You Can' t Say Kingston Doesn' t Love You
TTITLE5=Crescent - Shaped Depression
TTITLE6=Safe In Your Skin
TTITLE7=Where Am I?
TTITLE8=Your Screen Door
TTITLE9=27
TTITLE10=Stab
TTITLE11=GMT (Greenwich Mean Time)
EXTD=
EXTT0=
EXTT1=
EXTT2=
EXTT3=
EXTT4=
EXTT5=
EXTT6=
EXTT7=
EXTT8=
EXTT9=
EXTT10=
EXTT11=
PLAYORDER=
